# xmcd
#
# Track frame offsets: 
#        150
#        13469
#        31028
#        45945
#        63561
#        76083
#        87831
#        104332
#        122653
#        137905
#        152185
#        166009
#
# Disc length: 2412 seconds
#
# Revision: 0
# Processed by: cddbd v1.5.2PL0 Copyright (c) Steve Scherf et al.
# Submitted via: ExactAudioCopy v0.99pb4
#
DISCID=8d096a0c
DTITLE=Zaza Fouriner - Zaza Fouriner
DYEAR=1900
DGENRE=
TTITLE0=La Vie A Deux
TTITLE1=Mademoiselle
TTITLE2=Les Mots Toc
TTITLE3=Mon Homme
TTITLE4=Comptine Pour Une Desesperee
TTITLE5=S.O.S
TTITLE6=Reve Americain
TTITLE7=Mon Slow
TTITLE8=Baston
TTITLE9=C'Est Comme Ca
TTITLE10=Baiser D'Un Soir
TTITLE11=Post-Scriptum
EXTD=
EXTT0=
EXTT1=
EXTT2=
EXTT3=
EXTT4=
EXTT5=
EXTT6=
EXTT7=
EXTT8=
EXTT9=
EXTT10=
EXTT11=
PLAYORDER=
